# xmcd
#
# Track frame offsets: 
#        150
#        19560
#        38970
#        63550
#
# Disc length: 1192 seconds
#
# Revision: 2
# Processed by: cddbd v1.5.2PL0 Copyright (c) Steve Scherf et al.
# Submitted via: ExactAudioCopyFreeDBPlugin 1.0
#
DISCID=2c04a604
DTITLE=Supercell ryo feat Hatsune Miku - メルト
DYEAR=2007
DGENRE=Vocaloid
TTITLE0=メルト
TTITLE1=メルト カラオケ ver
TTITLE2=きみをわすれない
TTITLE3=きみをわすれない アレンジ ver
EXTD=YEAR: 2007
EXTT0=
EXTT1=
EXTT2=
EXTT3=
PLAYORDER=
